# xmcd
#
# Track frame offsets:
#	150
#	12827
#	25220
#	38063
#	50510
#	63924
#	75739
#	87896
#	100023
#	112579
#	124787
#	135736
#	147340
#	160273
#	172830
#	185451
#	196130
#	208992
#	221245
#	234032
#	246663
#	260367
#	271653
#	282993
#	295740
#	308546
#	321128
#
# Disc length: 4446 seconds
#
# Revision: 1
# Processed by: cddbd v1.5.2PL0 Copyright (c) Steve Scherf et al.
# Submitted via: audiograbber 1.83.01
#
DISCID=75115c1b
DTITLE=Bob Dunn - Master of the Electric Steel Guitar, 1935-1950 (OJL, 2010) - 
DTITLE=Disc 2
DYEAR=2010
DGENRE=Western Swing
TTITLE0=Bob Dunn's Vagabonds - When Night Falls
TTITLE1=Bob Dunn's Vagabonds - You'll Pay Some Day
TTITLE2=Bob Dunn's Vagabonds - You Don't Know My Mind
TTITLE3=Bob Dunn's Vagabonds - Graveyard Blues
TTITLE4=Bob Dunn's Vagabonds - I Want the Whole World to Know
TTITLE5=Bob Dunn's Vagabonds - Stompin' at the Honky Tonk
TTITLE6=Bob Dunn's Vagabonds - I'll Tell the World (She's a Good Little Girl)
TTITLE7=Bob Dunn's Vagabonds - Juke Box Rag
TTITLE8=Bob Dunn's Vagabonds - Marcheta
TTITLE9=Floyd Tillman - There Must be Someone for Me
TTITLE10=Floyd Tillman - I Never Felt This Way Before
TTITLE11=Bill Boyd and his Cowboy Ramblers - Swing Steel, Swing
TTITLE12=Bill Mounce and his Sons of the South - I Don't Get It
TTITLE13=Bill Mounce and his Sons of the South - From the Start
TTITLE14=Bill Mounce and his Sons of the South - It's Just My Imagination
TTITLE15=Bill Mounce and his Sons of the South - Kickin' It Off
TTITLE16=Bill Mounce and his Sons of the South - I Found a New Baby
TTITLE17=Bill Mounce and his Sons of the South - What's Bob Done
TTITLE18=The Sons of Dixie - Bugle Two-Step
TTITLE19=The Sons of Dixie - I'm Always Dreaming of You
TTITLE20=The Sons of Dixie - Don't Ever Go Wrong
TTITLE21=The Modern Mountaineers - Mary Jane
TTITLE22=The Modern Mountaineers - Takin' Off
TTITLE23=The Modern Mountaineers - Baby, You've Let Me Down
TTITLE24=Cliff Bruner and his Texas Wanderers - San Antonio Blues
TTITLE25=Tommy Dover and his Texas Rhythm Boys - Blue Over You
TTITLE26=Harry Choates and his Fiddle - I've Quit My Cattin' Around
EXTD=
EXTT0=
EXTT1=
EXTT2=
EXTT3=
EXTT4=
EXTT5=
EXTT6=
EXTT7=
EXTT8=
EXTT9=
EXTT10=
EXTT11=
EXTT12=
EXTT13=
EXTT14=
EXTT15=
EXTT16=
EXTT17=
EXTT18=
EXTT19=
EXTT20=
EXTT21=
EXTT22=
EXTT23=
EXTT24=
EXTT25=
EXTT26=
PLAYORDER=
